<svg id="Layer_1" data-name="Layer 1" xmlns="http://www.w3.org/2000/svg" viewBox="0 0 500 500"><title>cat</title><path d="M410,310c-17-47-2-84-1-137s.33-88.16-12-91c-26-6-76,67-86,66s-134-21-144-30c-7.36-6.62-17-70-35-70-22,0-69,112-82,173-4.57,21.42-8.29,49.83-6.8,79.42L8.81,299a7.5,7.5,0,1,0-.62,15l36.24,1.49q.6,5.32,1.47,10.64l-38.73,7A7.5,7.5,0,0,0,8.49,348a7.67,7.67,0,0,0,1.34-.12l39-7.05A174.79,174.79,0,0,0,55,361c16.8,44.81,65,66,70,86,5.18,20.74,2,37,2,53H500V410C442,381,428.61,361.45,410,310ZM91,307a25,25,0,1,1,25-25A25,25,0,0,1,91,307Zm122,20.06c-.9,7.49-13,12.2-27.08,10.51s-24.72-9.13-23.82-16.63,13-12.2,27.08-10.51S213.85,319.56,213,327.06ZM310,339a26,26,0,1,1,26-26A26,26,0,0,1,310,339Zm92.85,70.05a7.49,7.49,0,0,1-9.9,3.8l-41.5-18.5a7.5,7.5,0,0,1,6.1-13.7l41.5,18.5A7.49,7.49,0,0,1,402.85,409.05Zm6.56-38.86a7.51,7.51,0,0,1-7.4,6.31,8.08,8.08,0,0,1-1.2-.09l-40.5-6.5a7.5,7.5,0,1,1,2.38-14.82l40.5,6.5A7.51,7.51,0,0,1,409.41,370.19Z" style="fill:#46c48c"/></svg>