<svg id="Layer_1" data-name="Layer 1" xmlns="http://www.w3.org/2000/svg" viewBox="0 0 1800 500"><title>cat</title><path d="M90,310c17-47,2-84,1-137s-.33-88.16,12-91c26-6,76,67,86,66s134-21,144-30c7.36-6.62,17-70,35-70,22,0,69,112,82,173,4.57,21.42,8.29,49.83,6.8,79.42L491.19,299a7.5,7.5,0,0,1,.62,15l-36.24,1.49q-.6,5.32-1.47,10.64l38.73,7A7.5,7.5,0,0,1,491.51,348a7.67,7.67,0,0,1-1.34-.12l-39-7.05A174.79,174.79,0,0,1,445,361c-16.8,44.81-65,66-70,86-5.18,20.74-2,37-2,53H0V410C58,381,71.39,361.45,90,310Zm319-3a25,25,0,1,0-25-25A25,25,0,0,0,409,307ZM287.05,327.06c.9,7.49,13,12.2,27.08,10.51s24.72-9.13,23.82-16.63-13-12.2-27.08-10.51S286.15,319.56,287.05,327.06ZM190,339a26,26,0,1,0-26-26A26,26,0,0,0,190,339ZM97.15,409.05a7.49,7.49,0,0,0,9.9,3.8l41.5-18.5a7.5,7.5,0,1,0-6.1-13.7L101,399.15A7.49,7.49,0,0,0,97.15,409.05Zm-6.56-38.86A7.51,7.51,0,0,0,98,376.5a8.08,8.08,0,0,0,1.2-.09l40.5-6.5a7.5,7.5,0,1,0-2.38-14.82l-40.5,6.5A7.51,7.51,0,0,0,90.59,370.19Z" style="fill:#46c48c"/><path d="M666.88,429.57q-35.88-20.24-55.2-58t-19.32-88.32q0-50.6,19.32-88.09t55.2-57.73q35.88-20.23,83.72-20.24,60.26,0,104,33.12,6.9,5.52,9.66,11t2.76,13.8q0,12-6.67,20.47T844,204.17a35.46,35.46,0,0,1-11.27-1.61,43.89,43.89,0,0,1-10.81-5.75q-18.4-12-34-17.25a104.33,104.33,0,0,0-33.58-5.29q-44.16,0-66.47,27.37T665.5,283.29q0,109.48,88.78,109.48a97.09,97.09,0,0,0,32.2-5.29q15.18-5.28,35.42-17.25a66.46,66.46,0,0,1,11.5-5.75A32,32,0,0,1,844,362.87q9.66,0,16.33,8.51T867,391.85a30.15,30.15,0,0,1-3,14,34,34,0,0,1-9.43,10.81q-43.71,33.12-104,33.12Q702.75,449.81,666.88,429.57Zm547.86-12.88q0,12.88-10.35,21.85a35.15,35.15,0,0,1-23.69,9,31,31,0,0,1-16.56-4.83q-7.83-4.83-12-14.49l-24.38-54.28H971.86l-24.38,54.28q-4.14,9.66-11.73,14.49A30.64,30.64,0,0,1,919,447.51a36,36,0,0,1-23.92-9q-10.59-9-10.58-21.85,0-6.44,3.68-14.72l124.2-260.82a36,36,0,0,1,15.18-16.79,43.64,43.64,0,0,1,43.7.23,40.79,40.79,0,0,1,15.64,16.56L1211.06,402Q1214.74,410.25,1214.74,416.69Zm-218.5-97.06h107.18L1050.06,200Zm301.53,118.68q-9.9-9.66-9.89-25.76V179.79h-74.52q-34,0-34-29.44,0-29,34-29h220.8q34,0,34,29,0,29.44-34,29.44h-74.52V412.55q0,16.11-9.66,25.76T1323.76,448Q1307.65,448,1297.77,438.31Zm241.27,3q-31.29-8.51-51.06-24.15-6.9-5.06-9.89-10.81t-3-14.49a31.07,31.07,0,0,1,7.13-20.24q7.13-8.73,16.33-8.74a31.19,31.19,0,0,1,9.89,1.61,62.49,62.49,0,0,1,11.73,5.75,154.57,154.57,0,0,0,40,18.17,162.63,162.63,0,0,0,44.62,5.75q30.36,0,46.46-10.12t16.1-29q0-14.25-15-23t-53.13-16.56q-42.78-8.73-68.31-21.16t-37.26-30.82Q1482,245.12,1482,218.89a86.93,86.93,0,0,1,16.79-52.21q16.79-23.22,46.46-36.34t66.93-13.11q65.31,0,107.64,32.66a36.66,36.66,0,0,1,9.89,11.27,30.18,30.18,0,0,1,3,14,31.08,31.08,0,0,1-7.13,20.24q-7.14,8.74-16.33,8.74a31.11,31.11,0,0,1-9.43-1.38,65,65,0,0,1-12.19-6q-18.87-12-34.73-17.94t-40.25-6q-28.07,0-44.16,10.81t-16.1,29.67q0,11,6.21,18.17t20.7,12.65q14.49,5.52,41.17,11.5,62.55,13.8,89.93,35.42t27.37,59.34q0,29.44-16.33,52t-46,35q-29.67,12.42-68.77,12.42Q1570.32,449.81,1539,441.3Z" style="fill:#242424"/></svg>