<?xml version="1.0" encoding="utf-8"?>
<!-- Generator: Adobe Illustrator 23.0.3, SVG Export Plug-In . SVG Version: 6.00 Build 0)  -->
<svg version="1.1" xmlns="http://www.w3.org/2000/svg" xmlns:xlink="http://www.w3.org/1999/xlink" x="0px" y="0px"
	 viewBox="0 0 1000 1000" style="enable-background:new 0 0 1000 1000;" xml:space="preserve">
<style type="text/css">
	.st0{clip-path:url(#SVGID_2_);}
	.st1{fill:url(#SVGID_3_);}
	.st2{fill:url(#SVGID_4_);}
	.st3{fill:url(#SVGID_5_);}
	.st4{fill:url(#SVGID_6_);}
	.st5{fill:url(#SVGID_7_);}
	.st6{fill:url(#SVGID_8_);}
	.st7{fill:url(#SVGID_9_);}
	.st8{fill:url(#SVGID_10_);}
	.st9{fill:url(#SVGID_11_);}
	.st10{fill:url(#SVGID_12_);}
	.st11{fill:url(#SVGID_13_);}
	.st12{fill:url(#SVGID_14_);}
	.st13{fill:url(#SVGID_15_);}
	.st14{fill:url(#SVGID_16_);}
	.st15{fill:url(#SVGID_17_);}
	.st16{fill:url(#SVGID_18_);}
	.st17{fill:url(#SVGID_19_);}
	.st18{fill:none;stroke:#FFFFFF;stroke-width:25;stroke-miterlimit:10;}
	.st19{fill:#FFFFFF;}
	.st20{fill:#1A1A1A;}
	.st21{fill:#62B8DA;}
	.st22{display:none;}
	.st23{display:inline;fill:none;stroke:#FFFFFF;stroke-width:25;stroke-miterlimit:10;}
	.st24{clip-path:url(#SVGID_21_);}
	.st25{fill:url(#SVGID_22_);}
	.st26{fill:url(#SVGID_23_);}
	.st27{fill:url(#SVGID_24_);}
	.st28{fill:url(#SVGID_25_);}
	.st29{fill:url(#SVGID_26_);}
	.st30{fill:url(#SVGID_27_);}
	.st31{fill:url(#SVGID_28_);}
	.st32{fill:url(#SVGID_29_);}
	.st33{fill:url(#SVGID_30_);}
	.st34{fill:url(#SVGID_31_);}
	.st35{fill:url(#SVGID_32_);}
	.st36{fill:url(#SVGID_33_);}
	.st37{fill:url(#SVGID_34_);}
	.st38{fill:url(#SVGID_35_);}
	.st39{fill:url(#SVGID_36_);}
	.st40{fill:url(#SVGID_37_);}
	.st41{fill:url(#SVGID_38_);}
	.st42{display:inline;}
</style>
<g id="Design">
	<g>
		<path d="M379.4,950L50,620.6l120.6-450L620.6,50L950,379.4l-120.6,450L379.4,950z M99.1,607.4l293.5,293.5l400.9-107.4
			l107.4-400.9L607.4,99.1L206.5,206.5L99.1,607.4z"/>
		<g id="JT_2_">
			<path d="M636.8,447.5l24.3-0.5c31.5,0,54.4,4.5,68.7,13.4c7,2.2,10.5,5.1,10.5,8.6c0,2.5-3.1,4.3-9.3,5.2
				c-6.2,1-27.7,3.4-64.4,7.4c-36.7,4-61.9,6.3-75.6,6.9c-6,0.3-20,10.8-41.7,31.5c-21.8,20.7-42.5,43.4-62.2,68.2
				c-19.7,24.8-29.6,42.1-29.6,52c0,1.6,0.8,2.9,2.4,4.1c1.6,1.1,3.6,1.7,6,1.7c2.4,0,6.1-1,11.2-2.9c60.4-35.6,119-74.5,176-116.8
				c2.9,2.2,4.3,4.9,4.3,8.1c0,3.2-1.6,6.3-4.8,9.3c-3.2,3-7.9,7.4-14.1,13.1c-6.2,5.7-17.7,16.1-34.6,31
				c-16.9,14.9-32.7,28.3-47.7,40.1c-40.1,32.4-68,51.2-83.9,56.3c-5.7,1.6-12.5,2.4-20.3,2.4c-7.8,0-14.9-4-21.5-11.9
				c-6.5-7.9-9.8-18.8-9.8-32.4c0-13.7,8.8-33.4,26.5-59.1c17.6-25.7,41.7-52.1,72.2-79.2c2.9-2.2,4.3-4.3,4.3-6.2
				c0-1.9-3.3-2.9-10-2.9l-30,1c-42.3,0-64.1-4.8-65.3-14.3c-9.8-1.9-14.8-4.8-14.8-8.6c0-1.3,0.6-2,1.9-2.1
				c1.3-0.2,2.4-0.3,3.3-0.5c1-0.2,2.5-0.4,4.8-0.7c2.2-0.3,19.8-2.9,52.7-7.6c32.9-4.8,70.3-8.7,112.3-11.9l32.9-43.9
				c1.9-3.8,8.6-5.7,20-5.7c11.4,0,17.2,2.4,17.2,7.2c0,1.6-1.3,4.5-3.8,8.6L633,432.7c-1.6,5.1-2.5,8.9-2.9,11.4
				C630.2,446.4,632.4,447.5,636.8,447.5z"/>
			<path d="M555.3,356.6l20.5,1c4.1,0.3,6.2,1.8,6.2,4.3c0,1.3-5,8.7-15,22.2c-10,13.5-25.4,34.9-46.3,64.1
				c-20.8,29.3-37.9,53.3-51.3,72.2c-13.4,18.9-27.6,38.7-42.7,59.4c-15.1,20.7-28.1,37.3-39.1,49.8c-11,12.6-22.3,24.4-34.1,35.5
				c-21.9,20.3-44,30.5-66.3,30.5c-4.1,0-9.8-2.4-16.9-7.2c-7.2-4.8-10.7-11.7-10.7-20.7c0-9.1,8.4-24,25.3-44.8
				c16.9-20.8,37-40,60.3-57.5c23.4-17.5,42.7-26.2,57.9-26.2c1.3,0,1.9,0.3,1.9,0.9c0.3,0.6,0.7,1,1.2,1s1.2-0.5,2.1-1.4l133.5-176
				C544.2,359,548.7,356.6,555.3,356.6z M291.6,667c8.3,0,28.6-19.2,61-57.5c32.4-38.3,48.6-59.1,48.6-62.2c0-0.6-0.3-0.9-1-0.9
				c-7,0-27.1,17.4-60.3,52.2c-33.2,34.8-49.8,57.1-49.8,67C290.2,666.6,290.7,667,291.6,667z M619.2,272.7c3.2,0,5.2,0.6,6.2,1.9
				c4.4,5.4,6.7,9.8,6.7,13.1c0,3.3-1,6.2-2.9,8.6c-1.9,2.4-4.2,5.1-6.9,8.1c-2.7,3-8.1,7.2-16.2,12.4c-8.1,5.2-16,7.9-23.6,7.9
				c-5.7-1-8.6-4.4-8.6-10.5c0-9.5,5.7-18.8,17.2-27.9C602.5,277.2,611.9,272.7,619.2,272.7z"/>
		</g>
	</g>
</g>
<g id="Polar_Grid" class="st22">
</g>
</svg>
