<?xml version="1.0" encoding="utf-8"?>
<!-- Generator: Adobe Illustrator 23.0.3, SVG Export Plug-In . SVG Version: 6.00 Build 0)  -->
<svg version="1.1" id="Layer_1" xmlns="http://www.w3.org/2000/svg" xmlns:xlink="http://www.w3.org/1999/xlink" x="0px" y="0px"
	 viewBox="0 0 400 400" style="enable-background:new 0 0 400 400;" xml:space="preserve">
<path d="M253.6,0l-200,53.6L0,253.6L146.4,400l200-53.6l53.6-200L253.6,0z M330.4,330.4l-178.2,47.7L21.8,247.7L69.6,69.6
	l178.2-47.7l130.4,130.4L330.4,330.4z M302.1,182.4c-6.4-4-16.5-5.9-30.5-5.9l-10.8,0.2c-2,0-3-0.5-3-1.5c0.1-1.1,0.6-2.8,1.3-5.1
	l5.3-7.4c1.1-1.8,1.7-3.1,1.7-3.8c0-2.1-2.5-3.2-7.6-3.2c-5.1,0-8.1,0.8-8.9,2.5L235,177.7c-9.9,0.8-19.3,1.6-28.1,2.6
	c0.8-1.1,1.6-2.2,2.4-3.3c9.3-13,16.1-22.5,20.6-28.5c4.4-6,6.7-9.3,6.7-9.9c0-1.1-0.9-1.8-2.8-1.9l-9.1-0.4c-3,0-4.9,1.1-5.9,3.2
	l-33,43.5c-0.2,0-0.4,0.1-0.6,0.1c-14.6,2.1-22.4,3.3-23.4,3.4c-1,0.1-1.7,0.2-2.1,0.3c-0.4,0.1-0.9,0.1-1.5,0.2
	c-0.6,0.1-0.8,0.4-0.8,1c0,1.7,2.2,3,6.6,3.8c0.3,2.6,4.1,4.4,11.2,5.4l-15.6,20.6c-0.4,0.4-0.7,0.6-1,0.6s-0.4-0.1-0.5-0.4
	c0-0.3-0.3-0.4-0.8-0.4c-6.8,0-15.4,3.9-25.7,11.7c-10.4,7.8-19.3,16.3-26.8,25.5c-7.5,9.3-11.2,15.9-11.2,19.9c0,4,1.6,7.1,4.8,9.2
	c3.2,2.1,5.7,3.2,7.5,3.2c9.9,0,19.7-4.5,29.5-13.6c5.2-4.9,10.3-10.2,15.2-15.8c4.9-5.6,10.7-13,17.4-22.1c6.7-9.2,13-18,19-26.4
	c2.3-3.3,5-7,7.8-11l11.9-0.4c3,0,4.4,0.4,4.4,1.3c0,0.8-0.6,1.8-1.9,2.8c-13.6,12-24.3,23.7-32.1,35.2
	c-7.8,11.4-11.8,20.2-11.8,26.3c0,6.1,1.4,10.9,4.3,14.4c2.9,3.5,6.1,5.3,9.5,5.3c3.5,0,6.5-0.4,9-1.1c7.1-2.3,19.5-10.6,37.3-25
	c6.6-5.2,13.7-11.2,21.2-17.8c7.5-6.6,12.6-11.2,15.4-13.8c2.8-2.5,4.8-4.5,6.3-5.8c1.4-1.3,2.1-2.7,2.1-4.1c0-1.4-0.6-2.6-1.9-3.6
	c-25.3,18.8-51.4,36.1-78.2,51.9c-2.3,0.8-3.9,1.3-5,1.3c-1.1,0-1.9-0.2-2.6-0.7c-0.7-0.5-1.1-1.1-1.1-1.8c0-4.4,4.4-12.1,13.1-23.1
	c8.8-11,18-21.1,27.7-30.3c9.7-9.2,15.9-13.8,18.5-14c6.1-0.3,17.3-1.3,33.6-3.1c16.3-1.8,25.9-2.9,28.6-3.3
	c2.8-0.4,4.1-1.2,4.1-2.3C306.8,184.7,305.2,183.4,302.1,182.4z M134.5,248.7c-14.4,17-23.5,25.5-27.1,25.5c-0.4,0-0.6-0.2-0.6-0.6
	c0-4.4,7.4-14.3,22.1-29.8c14.8-15.5,23.7-23.2,26.8-23.2c0.3,0,0.4,0.1,0.4,0.4C156.1,222.5,148.9,231.7,134.5,248.7z M232.9,117.4
	c0-4.2,2.5-8.4,7.6-12.4c5.1-4,9.3-6,12.5-6c1.4,0,2.3,0.3,2.8,0.8c2,2.4,3,4.3,3,5.8c0,1.5-0.4,2.8-1.3,3.8
	c-0.8,1.1-1.9,2.3-3.1,3.6c-1.2,1.3-3.6,3.2-7.2,5.5c-3.6,2.3-7.1,3.5-10.5,3.5C234.1,121.7,232.9,120.1,232.9,117.4z"/>
</svg>
