<svg id="Layer_1" data-name="Layer 1" xmlns="http://www.w3.org/2000/svg" width="400" height="400" viewBox="0 0 400 400"><defs><style>.cls-1{fill:#fff;}</style></defs><title>hex</title><path class="cls-1" d="M253.5889,0,53.59,53.59,0,253.5889,146.41,400,346.41,346.41,400,146.41Zm76.8377,330.4266L152.26,378.1659,21.8341,247.7393,69.5726,69.5726,247.7393,21.8333,378.1659,152.26ZM302.14,182.3917q-9.5368-5.9306-30.5171-5.9343l-10.8088.2125q-2.97,0-2.9665-1.4839a32.0017,32.0017,0,0,1,1.2721-5.0865l5.2982-7.4174q1.6929-2.7516,1.6943-3.8143,0-3.1789-7.6285-3.179-7.6307,0-8.9007,2.5429L234.9587,177.73q-14.9184,1.1307-28.1,2.5651c.7821-1.0992,1.56-2.1932,2.3678-3.3274q13.8787-19.4958,20.5581-28.5041,6.6744-9.0058,6.6751-9.8547,0-1.694-2.7553-1.9075l-9.1131-.4236q-4.45,0-5.933,3.1789l-32.9978,43.4864c-.2008.0288-.41.0561-.6105.0851q-21.9348,3.1789-23.4183,3.3907c-.9865.1421-1.695.2483-2.1193.3181-.4236.0724-.9169.142-1.4833.2117a.8668.8668,0,0,0-.8478.9534q0,2.5437,6.57,3.815c.3425,2.5787,4.08,4.3682,11.1709,5.3781l-15.604,20.5637c-.4236.4223-.7415.6348-.9533.6348s-.3878-.1435-.53-.425c0-.2842-.2814-.4222-.8478-.4222q-10.1722,0-25.7494,11.6561a149.1969,149.1969,0,0,0-26.809,25.5361q-11.23,13.8789-11.2318,19.9207a10.3947,10.3947,0,0,0,4.7684,9.2194q4.7683,3.179,7.523,3.179,14.8371,0,29.4581-13.5629,7.8427-7.4216,15.153-15.79,7.3119-8.3736,17.3779-22.1449,10.0686-13.7793,18.9679-26.3861,3.5149-4.9779,7.817-11.0462l11.8753-.3773q4.45,0,4.45,1.2721c0,.8472-.6361,1.7681-1.9068,2.7546q-20.3463,18.0161-32.1073,35.1792-11.7626,17.1675-11.7622,26.28,0,9.1147,4.3448,14.41,4.341,5.2981,9.5368,5.2981a33.8873,33.8873,0,0,0,9.0062-1.06q10.5965-3.39,37.3-25.0064,9.9589-7.8375,21.1928-17.8027,11.23-9.9591,15.3647-13.7754,4.1331-3.8142,6.2517-5.828a5.7732,5.7732,0,0,0,2.1192-4.1323,4.4384,4.4384,0,0,0-1.9068-3.6025A881.9536,881.9536,0,0,1,189.8177,263.56a16.2525,16.2525,0,0,1-4.9794,1.2722,4.49,4.49,0,0,1-2.6491-.7423,2.15,2.15,0,0,1-1.06-1.802q0-6.5648,13.1392-23.1a293.1875,293.1875,0,0,1,27.6569-30.3059Q236.44,195.11,240.4694,194.8955q9.1083-.4221,33.59-3.0734,24.4794-2.6469,28.61-3.2844,4.1329-.6364,4.1337-2.3311Q306.8031,183.8762,302.14,182.3917Zm-167.617,66.3137q-21.617,25.5348-27.127,25.5362a.5617.5617,0,0,1-.6354-.6347q0-6.573,22.1462-29.7776,22.148-23.2044,26.8091-23.2044a.3717.3717,0,0,1,.4235.4222Q156.139,223.1665,134.5226,248.7054Zm98.3348-131.29q0-6.3579,7.6286-12.3977,7.6307-6.04,12.5045-6.04,2.1152,0,2.7553.8472,2.9637,3.6063,2.9665,5.828a5.913,5.913,0,0,1-1.2721,3.815q-1.2708,1.5894-3.0727,3.6025a39.0637,39.0637,0,0,1-7.205,5.5107,19.3352,19.3352,0,0,1-10.49,3.4962Q232.856,121.4423,232.8574,117.4156Z"/></svg>